<?xml version="1.0" standalone="no"?>
<!DOCTYPE svg PUBLIC "-//W3C//DTD SVG 20010904//EN"
 "http://www.w3.org/TR/2001/REC-SVG-20010904/DTD/svg10.dtd">
<svg version="1.0" xmlns="http://www.w3.org/2000/svg"
 width="172.000000pt" height="172.000000pt" viewBox="0 0 172.000000 172.000000"
 preserveAspectRatio="xMidYMid meet">
<metadata>
Created by potrace 1.14, written by Peter Selinger 2001-2017
</metadata>
<g transform="translate(0.000000,172.000000) scale(0.100000,-0.100000)"
fill="#000000" stroke="none">
<path d="M745 1609 c-16 -5 -41 -11 -55 -13 -36 -6 -111 -34 -137 -52 -13 -8
-23 -11 -23 -8 0 4 -9 -1 -20 -11 -11 -10 -20 -14 -20 -9 0 5 -4 4 -8 -2 -4
-5 -23 -20 -42 -32 -19 -11 -46 -32 -60 -45 -14 -13 -32 -26 -40 -29 -17 -5
-22 -37 -7 -40 32 -4 153 -3 157 3 16 19 191 97 235 104 11 2 36 8 56 13 37
10 192 7 209 -3 6 -4 23 -9 38 -12 15 -3 32 -6 37 -7 43 -9 176 -86 227 -131
14 -13 29 -21 32 -18 3 4 6 1 6 -5 0 -6 16 -27 35 -47 19 -21 37 -46 40 -56 4
-10 11 -19 16 -19 5 0 9 -5 9 -11 0 -6 9 -23 20 -39 11 -15 16 -30 12 -34 -3
-4 -2 -10 4 -14 24 -15 48 -127 50 -232 1 -81 -3 -120 -18 -170 -23 -73 -58
-153 -70 -158 -4 -2 -8 -10 -8 -18 0 -8 -3 -14 -8 -14 -4 0 -16 -16 -26 -35
-11 -19 -25 -35 -33 -35 -7 0 -13 -5 -13 -11 0 -19 -132 -118 -157 -119 -7 0
-13 -4 -13 -9 0 -11 -60 -33 -60 -23 0 4 -4 1 -8 -6 -8 -12 -33 -20 -82 -27
-14 -1 -36 -7 -50 -12 -30 -11 -170 -11 -187 0 -7 5 -13 6 -13 2 0 -3 -16 1
-35 10 -20 8 -34 11 -31 6 3 -4 -10 -3 -29 3 -18 6 -31 15 -28 20 3 5 2 6 -4
3 -10 -6 -107 37 -129 58 -6 6 -26 21 -45 35 -59 44 -119 112 -119 134 0 12
36 15 213 16 279 2 294 3 349 29 72 35 157 128 150 164 -1 4 3 7 8 7 5 0 9 3
8 8 -1 4 4 30 12 58 10 39 20 56 44 70 36 21 86 73 86 90 0 7 7 14 15 18 8 3
12 12 9 21 -3 8 -1 15 5 15 6 0 10 3 10 8 -1 4 0 9 1 12 3 8 10 42 15 70 2 14
4 25 5 25 7 0 5 47 -2 51 -4 3 -6 9 -3 14 2 4 -8 14 -24 21 -23 12 -123 14
-532 13 -277 -1 -510 -2 -517 -3 -11 -1 -50 -74 -56 -105 -8 -42 -19 -83 -25
-91 -4 -5 -7 -17 -6 -25 1 -8 -2 -27 -6 -42 -5 -18 -4 -28 3 -28 7 0 7 -5 1
-12 -5 -7 -8 -26 -7 -43 2 -16 5 -57 7 -90 2 -33 9 -73 16 -88 6 -16 11 -37
11 -48 0 -23 69 -170 85 -181 5 -4 6 -8 2 -8 -4 0 2 -11 15 -25 13 -14 41 -47
63 -74 51 -62 176 -151 257 -184 83 -33 99 -39 122 -44 11 -2 24 -7 30 -12 13
-10 279 -8 321 3 17 4 37 9 45 11 8 2 15 4 15 5 0 1 7 3 15 5 8 2 38 13 65 26
28 12 53 22 58 21 4 -1 7 3 7 9 0 5 4 8 9 5 5 -3 14 1 21 9 7 8 18 15 25 15 7
0 15 7 19 15 3 8 10 15 16 15 14 0 130 102 130 115 0 3 8 14 18 24 32 36 39
47 71 107 36 70 53 110 58 144 2 14 10 36 16 50 7 14 12 49 12 78 0 28 2 52 5
52 4 0 5 24 3 53 -3 28 -4 58 -4 65 1 6 1 18 2 25 1 18 -31 137 -48 177 -27
64 -48 105 -55 108 -5 2 -8 9 -8 15 0 7 -15 30 -34 52 -19 22 -32 43 -30 47 3
4 2 8 -3 8 -4 0 -29 19 -54 43 -66 60 -109 96 -109 90 0 -2 -12 4 -27 15 -29
19 -97 52 -117 57 -6 1 -24 8 -41 14 -16 7 -42 14 -58 16 -15 2 -33 8 -40 12
-17 10 -235 12 -272 2z m250 -534 c17 0 36 4 43 8 6 5 12 4 12 0 0 -5 19 -8
43 -7 45 2 45 2 38 -47 -1 -3 -10 -16 -20 -28 -11 -13 -21 -27 -23 -31 -2 -5
-10 -10 -18 -12 -8 -2 -18 -7 -21 -11 -12 -16 -116 -23 -341 -22 -126 0 -228
-4 -228 -8 0 -4 -8 -4 -17 2 -9 5 -26 5 -38 1 -12 -5 -27 -5 -34 -1 -11 7 -75
5 -113 -3 -10 -2 -18 0 -18 6 0 5 -4 7 -9 4 -13 -8 -20 16 -10 34 4 9 10 36
14 60 4 25 11 48 16 51 6 3 152 5 325 5 174 -1 321 2 327 6 6 4 18 3 26 -1 9
-3 30 -6 46 -6z m-41 -307 c2 -10 0 -18 -6 -18 -5 0 -8 -5 -6 -11 6 -18 -44
-64 -93 -86 -43 -19 -66 -21 -314 -20 -184 0 -268 3 -271 11 -2 6 -6 25 -9 41
-7 37 -13 59 -15 63 -6 6 -5 28 1 32 4 3 165 5 358 5 325 0 350 -1 355 -17z"/>
</g>
</svg>
